<svg width="33" height="26" viewBox="0 0 33 26" fill="none" xmlns="http://www.w3.org/2000/svg">
<path d="M27.6656 2.61142C31.3451 8.05959 33.1622 14.205 32.4829 21.2798C32.4801 21.3097 32.4646 21.3372 32.4402 21.3552C29.6538 23.4157 26.9542 24.6662 24.2924 25.4954C24.2717 25.5018 24.2495 25.5014 24.229 25.4945C24.2085 25.4874 24.1906 25.4742 24.178 25.4565C23.563 24.5948 23.0043 23.6864 22.5147 22.7324C22.4866 22.6762 22.5124 22.6085 22.5701 22.5864C23.4575 22.2497 24.3014 21.8461 25.113 21.3683C25.1769 21.3306 25.181 21.2383 25.1219 21.194C24.9497 21.0653 24.779 20.9299 24.6158 20.7945C24.5852 20.7696 24.5441 20.7646 24.5094 20.7814C19.2401 23.232 13.4678 23.232 8.13615 20.7814C8.1015 20.7659 8.06038 20.7712 8.03064 20.7958C7.86778 20.9311 7.69674 21.0653 7.5261 21.194C7.46704 21.2383 7.47188 21.3306 7.53626 21.3683C8.3479 21.8371 9.19173 22.2497 10.0778 22.588C10.1353 22.6102 10.1625 22.6762 10.134 22.7324C9.65515 23.6876 9.09639 24.596 8.47005 25.4577C8.44277 25.4926 8.39796 25.5086 8.35561 25.4954C5.70648 24.6662 3.00688 23.4157 0.220459 21.3552C0.197272 21.3372 0.180562 21.3085 0.178107 21.2785C-0.389584 15.1589 0.767417 8.96269 4.99093 2.6102C5.00116 2.59342 5.01664 2.58026 5.03451 2.57248C7.11275 1.61196 9.33911 0.905284 11.6661 0.501749C11.7085 0.495201 11.7508 0.514843 11.7728 0.552625C12.0603 1.06528 12.389 1.72272 12.6114 2.25999C15.0642 1.88265 17.5554 1.88265 20.0595 2.25999C20.2818 1.73418 20.5991 1.06528 20.8854 0.552625C20.8955 0.533871 20.9114 0.518866 20.9305 0.509728C20.9497 0.500589 20.9713 0.497793 20.9921 0.501749C23.3203 0.906511 25.5467 1.61319 27.6233 2.57248C27.6416 2.58026 27.6566 2.59342 27.6656 2.61142ZM13.8583 14.2468C13.884 12.4377 12.5743 10.9407 10.9303 10.9407C9.29963 10.9407 8.00254 12.4246 8.00254 14.2468C8.00254 16.0686 9.32527 17.5525 10.9303 17.5525C12.5613 17.5525 13.8583 16.0686 13.8583 14.2468ZM24.6837 14.2468C24.7094 12.4377 23.3997 10.9407 21.7561 10.9407C20.125 10.9407 18.828 12.4246 18.828 14.2468C18.828 16.0686 20.1507 17.5525 21.7561 17.5525C23.3997 17.5525 24.6837 16.0686 24.6837 14.2468Z" fill="white"/>
</svg>
