<svg width="35" height="32" viewBox="0 0 35 32" fill="none" xmlns="http://www.w3.org/2000/svg">
<path id="github" d="M17.5 0.110465C13.1355 0.0661141 8.93198 1.75646 5.81323 4.81C2.69448 7.86353 0.915707 12.0304 0.867836 16.3949C0.884653 19.844 1.9942 23.1991 4.03711 25.9782C6.08003 28.7574 8.95118 30.8175 12.2382 31.8628C13.0698 32.014 13.3722 31.515 13.3722 31.0765C13.3722 30.638 13.3722 29.6704 13.3722 28.3095C8.74543 29.2923 7.76262 26.1322 7.76262 26.1322C7.45462 25.1402 6.79982 24.2922 5.91797 23.7433C4.40595 22.7453 6.03893 22.7604 6.03893 22.7604C6.56156 22.8303 7.06158 23.0176 7.50151 23.3083C7.94144 23.5989 8.30985 23.9854 8.57911 24.4388C9.04834 25.2524 9.81826 25.8493 10.7232 26.101C11.6281 26.3527 12.5956 26.239 13.4176 25.7845C13.5021 24.9565 13.877 24.1851 14.476 23.6072C10.7867 23.1989 6.91589 21.8079 6.91589 15.5633C6.8829 13.9343 7.48478 12.3564 8.59423 11.1633C8.08896 9.76478 8.14862 8.22441 8.76055 6.86917C8.76055 6.86917 10.1667 6.43069 13.2966 8.53239C16.0211 7.80638 18.8882 7.80638 21.6127 8.53239C24.7879 6.43069 26.1487 6.86917 26.1487 6.86917C26.7607 8.22441 26.8203 9.76478 26.315 11.1633C27.4503 12.3346 28.0848 13.9019 28.0841 15.533C28.0841 21.7928 24.1831 23.1687 20.524 23.5769C20.9247 23.9659 21.2342 24.4389 21.4303 24.9617C21.6263 25.4846 21.7041 26.0444 21.658 26.601V31.0614C21.658 31.0614 21.9604 32.014 22.792 31.8477C26.0697 30.7959 28.9312 28.7353 30.9678 25.9601C33.0044 23.1849 34.1119 19.8371 34.1322 16.3949C34.0843 12.0304 32.3055 7.86353 29.1868 4.81C26.068 1.75646 21.8645 0.0661141 17.5 0.110465Z" fill="white"/>
</svg>
