<svg width="26" height="16" viewBox="0 0 26 16" fill="none" xmlns="http://www.w3.org/2000/svg">
<path d="M24.5935 1.58109C24.7681 1.00096 24.5935 0.575523 23.7676 0.575523H21.0316C20.3354 0.575523 20.0173 0.943566 19.8426 1.34779C19.8426 1.34779 18.4515 4.74002 16.4803 6.93954C15.844 7.57956 15.5533 7.78167 15.2065 7.78167C15.0331 7.78167 14.7811 7.57956 14.7811 6.99942V1.58109C14.7811 0.884929 14.5802 0.575523 14.0001 0.575523H9.70085C9.26668 0.575523 9.00468 0.897405 9.00468 1.20431C9.00468 1.86305 9.99029 2.01526 10.0913 3.87169V7.89895C10.0913 8.781 9.9329 8.94194 9.58357 8.94194C8.6566 8.94194 6.40094 5.53724 5.06226 1.63973C4.80151 0.882434 4.53827 0.576771 3.83961 0.576771H1.10487C0.322622 0.576771 0.166672 0.944814 0.166672 1.34904C0.166672 2.07514 1.09364 5.66823 4.48462 10.4203C6.74528 13.6654 9.92791 15.4245 12.8273 15.4245C14.5652 15.4245 14.7798 15.034 14.7798 14.3603V11.9075C14.7798 11.1265 14.9458 10.9693 15.496 10.9693C15.9002 10.9693 16.5963 11.1739 18.2195 12.7371C20.0734 14.5911 20.3803 15.4232 21.4221 15.4232H24.1568C24.9378 15.4232 25.3283 15.0327 25.1037 14.2617C24.858 13.4944 23.9722 12.3778 22.7969 11.0566C22.1581 10.3031 21.2037 9.49213 20.913 9.08666C20.5076 8.56392 20.6248 8.33311 20.913 7.869C20.9143 7.87025 24.2466 3.17677 24.5935 1.58109Z" fill="#FFF9F9"/>
</svg>
